<?xml version="1.0" standalone="no"?>
<!DOCTYPE svg PUBLIC "-//W3C//DTD SVG 1.1//EN" "http://www.w3.org/Graphics/SVG/1.1/DTD/svg11.dtd">
<svg width="100%" height="100%" viewBox="0 0 358 237" version="1.1" xmlns="http://www.w3.org/2000/svg" xmlns:xlink="http://www.w3.org/1999/xlink" xml:space="preserve" style="fill-rule:evenodd;clip-rule:evenodd;stroke-linejoin:round;stroke-miterlimit:1.41421;">
    <g transform="matrix(1,0,0,1,-9.9998,-60.6186)">
        <path d="M196.349,60.619C150.339,60.619 106.426,88.13 89.574,126.519C44.991,130.32 10,166.329 10,211.897C10,259.99 48.988,297.382 97.081,297.382L292.107,297.382C334.021,297.382 368,264.16 368,222.245C368,187.442 344.544,157.916 312.599,148.965C299.898,96.651 248.932,60.619 196.349,60.619M196.349,69.93C246.221,69.93 292.308,104.852 303.55,151.161L304.837,156.46L310.087,157.93C338.703,165.949 358.689,192.396 358.689,222.245C358.689,239.959 351.779,256.529 339.233,268.902C326.699,281.263 309.963,288.07 292.107,288.07L97.081,288.07C53.472,288.07 19.311,254.611 19.311,211.897C19.311,171.967 49.858,139.251 90.365,135.796L95.877,135.326L98.1,130.262C113.694,94.739 154.095,69.93 196.349,69.93" style="fill:rgb(50,181,47);fill-rule:nonzero;"/>
        <path d="M117.543,249.699C115.869,249.699 115.326,249.88 114.963,250.197C114.466,250.648 113.742,251.871 113.742,259.7C113.742,267.529 114.466,268.751 114.963,269.157C115.326,269.52 115.869,269.655 117.543,269.655L121.661,269.655C123.381,269.655 123.879,269.52 124.286,269.157C124.784,268.751 125.508,267.529 125.508,259.7C125.508,251.871 124.784,250.648 124.286,250.197C123.879,249.88 123.381,249.699 121.661,249.699L117.543,249.699ZM123.291,243.861C126.775,243.861 128.449,244.269 129.807,245.535C131.662,247.21 133.201,250.513 133.201,259.7C133.201,268.841 131.662,272.145 129.807,273.864C128.449,275.086 126.775,275.539 123.291,275.539L115.914,275.539C112.43,275.539 110.801,275.086 109.443,273.864C107.542,272.145 106.049,268.841 106.049,259.7C106.049,250.513 107.542,247.21 109.443,245.535C110.801,244.269 112.43,243.861 115.914,243.861L123.291,243.861Z" style="fill:rgb(50,181,47);fill-rule:nonzero;"/>
        <path d="M151.182,268.74L151.182,246.372L146.684,247.912L145.063,243.13L152.56,240.334L157.747,240.334L157.747,268.74L151.182,268.74Z" style="fill:rgb(50,181,47);fill-rule:nonzero;"/>
        <path d="M181.9,238.18C180.64,238.18 180.231,238.316 179.958,238.555C179.584,238.896 179.038,239.815 179.038,245.71C179.038,251.603 179.584,252.524 179.958,252.83C180.231,253.103 180.64,253.205 181.9,253.205L185.001,253.205C186.295,253.205 186.67,253.103 186.977,252.83C187.351,252.524 187.896,251.603 187.896,245.71C187.896,239.815 187.351,238.896 186.977,238.555C186.67,238.316 186.295,238.18 185.001,238.18L181.9,238.18ZM186.227,233.785C188.851,233.785 190.111,234.092 191.133,235.046C192.53,236.306 193.688,238.793 193.688,245.71C193.688,252.592 192.53,255.079 191.133,256.373C190.111,257.293 188.851,257.634 186.227,257.634L180.674,257.634C178.051,257.634 176.824,257.293 175.802,256.373C174.371,255.079 173.246,252.592 173.246,245.71C173.246,238.793 174.371,236.306 175.802,235.046C176.824,234.092 178.051,233.785 180.674,233.785L186.227,233.785Z" style="fill:rgb(50,181,47);fill-rule:nonzero;"/>
        <path d="M207.993,246.058L207.993,229.122L204.587,230.288L203.36,226.667L209.036,224.55L212.963,224.55L212.963,246.058L207.993,246.058Z" style="fill:rgb(50,181,47);fill-rule:nonzero;"/>
        <path d="M227.673,233.867L227.673,218.302L224.543,219.373L223.415,216.046L228.632,214.101L232.241,214.101L232.241,233.867L227.673,233.867Z" style="fill:rgb(50,181,47);fill-rule:nonzero;"/>
        <path d="M245.784,204.528C244.964,204.528 244.698,204.617 244.521,204.772C244.277,204.993 243.922,205.592 243.922,209.426C243.922,213.26 244.277,213.859 244.521,214.058C244.698,214.236 244.964,214.302 245.784,214.302L247.801,214.302C248.643,214.302 248.887,214.236 249.087,214.058C249.33,213.859 249.685,213.26 249.685,209.426C249.685,205.592 249.33,204.993 249.087,204.772C248.887,204.617 248.643,204.528 247.801,204.528L245.784,204.528ZM248.599,201.669C250.306,201.669 251.125,201.868 251.79,202.489C252.699,203.309 253.453,204.927 253.453,209.426C253.453,213.903 252.699,215.521 251.79,216.363C251.125,216.962 250.306,217.183 248.599,217.183L244.986,217.183C243.279,217.183 242.482,216.962 241.817,216.363C240.886,215.521 240.155,213.903 240.155,209.426C240.155,204.927 240.886,203.309 241.817,202.489C242.482,201.868 243.279,201.669 244.986,201.669L248.599,201.669Z" style="fill:rgb(50,181,47);fill-rule:nonzero;"/>
        <path d="M260.397,189.018C259.718,189.018 259.497,189.091 259.351,189.22C259.149,189.404 258.855,189.899 258.855,193.075C258.855,196.251 259.149,196.747 259.351,196.912C259.497,197.059 259.718,197.114 260.397,197.114L262.068,197.114C262.765,197.114 262.967,197.059 263.133,196.912C263.334,196.747 263.628,196.251 263.628,193.075C263.628,189.899 263.334,189.404 263.133,189.22C262.967,189.091 262.765,189.018 262.068,189.018L260.397,189.018ZM262.729,186.65C264.142,186.65 264.822,186.815 265.372,187.329C266.125,188.008 266.749,189.348 266.749,193.075C266.749,196.784 266.125,198.124 265.372,198.822C264.822,199.317 264.142,199.501 262.729,199.501L259.736,199.501C258.322,199.501 257.662,199.317 257.111,198.822C256.34,198.124 255.734,196.784 255.734,193.075C255.734,189.348 256.34,188.008 257.111,187.329C257.662,186.815 258.322,186.65 259.736,186.65L262.729,186.65Z" style="fill:rgb(50,181,47);fill-rule:nonzero;"/>
        <path d="M271.225,174.377C270.731,174.377 270.571,174.43 270.464,174.524C270.317,174.657 270.103,175.018 270.103,177.328C270.103,179.638 270.317,179.998 270.464,180.119C270.571,180.225 270.731,180.265 271.225,180.265L272.44,180.265C272.948,180.265 273.095,180.225 273.215,180.119C273.362,179.998 273.576,179.638 273.576,177.328C273.576,175.018 273.362,174.657 273.215,174.524C273.095,174.43 272.948,174.377 272.44,174.377L271.225,174.377ZM272.922,172.655C273.949,172.655 274.444,172.775 274.844,173.149C275.391,173.643 275.845,174.618 275.845,177.329C275.845,180.026 275.391,181.001 274.844,181.508C274.444,181.869 273.949,182.002 272.922,182.002L270.744,182.002C269.716,182.002 269.237,181.869 268.835,181.508C268.274,181.001 267.833,180.026 267.833,177.329C267.833,174.618 268.274,173.643 268.835,173.149C269.237,172.775 269.716,172.655 270.744,172.655L272.922,172.655Z" style="fill:rgb(50,181,47);fill-rule:nonzero;"/>
        <path d="M295.781,74.844C285.502,104.632 249.445,127.961 220.221,134.908C192.822,141.431 168.578,136.074 143.229,145.827C94.177,164.682 90.9,210.795 107.402,237.646C108.689,239.74 172.488,234.658 203.829,221.226C245.552,203.345 270.463,169.593 276.926,157.026C277.414,156.508 278.989,155.151 281.516,155.956C284.146,156.795 284.291,158.966 284.263,159.696C281.416,172.76 269.221,217.845 220.787,246.439C198.758,259.444 181.874,265.843 169.53,269.203C167.455,269.768 167.558,271.302 169.92,271.284C200.124,271.052 269.052,275.466 297.762,238.991C330.998,194.727 313.402,124.98 295.781,74.844" style="fill:rgb(50,181,47);fill-rule:nonzero;"/>
    </g>
</svg>
